<?xml version="1.0" encoding="UTF-8"?>
<svg width="18px" height="18px" viewBox="0 0 18 18" version="1.1" xmlns="http://www.w3.org/2000/svg" xmlns:xlink="http://www.w3.org/1999/xlink">
    <!-- Generator: Sketch Internal 51 (54983) - http://www.bohemiancoding.com/sketch -->
    <title>Oval 2</title>
    <desc>Created with Sketch Internal.</desc>
    <defs></defs>
    <g id="Pricing-2.1-Iterations" stroke="none" stroke-width="1" fill="none" fill-rule="evenodd">
        <g id="Pricing-Block-2.1---E-—-Buy--Copy-5" transform="translate(-405.000000, -1794.000000)" fill="#FFFFFF">
            <g id="Group-10" transform="translate(344.000000, 1463.000000)">
                <g id="Group-15" transform="translate(61.000000, 297.000000)">
                    <g id="Group-5" transform="translate(0.000000, 34.000000)">
                        <path d="M9,18 C4.02943725,18 0,13.9705627 0,9 C0,4.02943725 4.02943725,0 9,0 C13.9705627,0 18,4.02943725 18,9 C18,13.9705627 13.9705627,18 9,18 Z M5.00000391,10.2947199 C5.19996422,10.8593137 7.00022739,12.677339 7.50028326,13.4715454 C8.00033913,14.2657518 8.500395,13.4715454 8.500395,13.4715454 C8.500395,13.4715454 12.5579991,6.99685543 13.0008978,6.05895251 C13.5009538,5.00001067 12.2508141,4.73527521 12.0007861,5.00001067 C11.750758,5.26474613 8.00033901,11.6183971 8.00033901,11.6183971 C8.00033901,11.6183971 6.50017152,9.23577804 6.00011565,9.23577804 C5.50005978,9.23577804 4.80004361,9.73012608 5.00000391,10.2947199 Z" id="Oval-2"></path>
                    </g>
                </g>
            </g>
        </g>
    </g>
</svg>